<svg width="23" height="19" viewBox="0 0 23 19" fill="none" xmlns="http://www.w3.org/2000/svg">
<path d="M11.2603 0C5.11123 0 0.125 4.36087 0.125 9.74051C0.125 14.0441 3.31559 17.6953 7.73997 18.9833C8.29648 19.0734 8.50079 18.772 8.50079 18.5147C8.50079 18.2824 8.49046 17.5151 8.48567 16.7012C5.38783 17.2904 4.73415 15.5519 4.73415 15.5519C4.22761 14.4261 3.49778 14.1267 3.49778 14.1267C2.48747 13.5222 3.57393 13.5346 3.57393 13.5346C4.6921 13.6033 5.28088 14.5383 5.28088 14.5383C6.27403 16.0275 7.88583 15.597 8.52126 15.3481C8.6212 14.7185 8.90978 14.2888 9.22823 14.0456C6.75494 13.7993 4.15496 12.9641 4.15496 9.23178C4.15496 8.16833 4.58995 7.29942 5.30227 6.61728C5.18665 6.37195 4.80551 5.38125 5.41014 4.03957C5.41014 4.03957 6.34521 3.77778 8.47313 5.03801C9.36136 4.82219 10.3139 4.71396 11.2603 4.71025C12.2066 4.71396 13.1599 4.82219 14.0498 5.03801C16.1751 3.77778 17.1089 4.03957 17.1089 4.03957C17.715 5.38125 17.3337 6.37195 17.2181 6.61728C17.9321 7.29942 18.3641 8.16833 18.3641 9.23178C18.3641 12.9729 15.7591 13.7967 13.2796 14.0378C13.679 14.3401 14.0349 14.9329 14.0349 15.8416C14.0349 17.1449 14.022 18.1939 14.022 18.5147C14.022 18.7739 14.2224 19.0776 14.7868 18.982C19.2088 17.6925 22.3953 14.0427 22.3953 9.74051C22.3953 4.36087 17.4099 0 11.2603 0" fill="#161514"/>
<path d="M4.37532 13.9184C4.35084 13.9663 4.26397 13.9807 4.18483 13.9478C4.10421 13.9163 4.05894 13.851 4.08507 13.803C4.109 13.7536 4.19606 13.7399 4.27649 13.7729C4.35729 13.8044 4.4033 13.8703 4.37532 13.9184" fill="#161514"/>
<path d="M4.82551 14.3541C4.77251 14.3967 4.66888 14.3769 4.59858 14.3095C4.52588 14.2423 4.51226 14.1524 4.566 14.1091C4.62066 14.0665 4.72115 14.0864 4.79404 14.1537C4.86674 14.2217 4.88091 14.311 4.82551 14.3541" fill="#161514"/>
<path d="M5.26375 14.9096C5.19565 14.9507 5.0843 14.9122 5.01546 14.8264C4.94736 14.7406 4.94736 14.6378 5.01693 14.5966C5.08595 14.5554 5.19565 14.5924 5.2654 14.6776C5.33332 14.7648 5.33332 14.8676 5.26375 14.9096" fill="#161514"/>
<path d="M5.86413 15.4462C5.8032 15.5045 5.67345 15.4889 5.57848 15.4093C5.4813 15.3316 5.45424 15.2212 5.51535 15.1629C5.577 15.1045 5.7075 15.1209 5.8032 15.1998C5.89965 15.2774 5.9291 15.3886 5.86413 15.4462" fill="#161514"/>
<path d="M6.69236 15.7578C6.66549 15.8333 6.54052 15.8676 6.41463 15.8355C6.28892 15.8025 6.20665 15.714 6.23204 15.6377C6.25818 15.5616 6.3837 15.5259 6.51052 15.5602C6.63604 15.5931 6.7185 15.6809 6.69236 15.7578" fill="#161514"/>
<path d="M7.60194 15.8156C7.60507 15.8951 7.49832 15.9611 7.36617 15.9625C7.23329 15.9651 7.1258 15.9007 7.12433 15.8224C7.12433 15.7421 7.22869 15.6768 7.36157 15.6749C7.49372 15.6726 7.60194 15.7365 7.60194 15.8156" fill="#161514"/>
<path d="M8.44841 15.6905C8.46423 15.7681 8.37239 15.8478 8.24116 15.869C8.11214 15.8895 7.99269 15.8416 7.97631 15.7646C7.9603 15.685 8.0538 15.6054 8.18263 15.5847C8.31405 15.5649 8.43166 15.6116 8.44841 15.6905" fill="#161514"/>
</svg>
