<svg width="13" height="11" viewBox="0 0 13 11" fill="none" xmlns="http://www.w3.org/2000/svg">
<path fill-rule="evenodd" clip-rule="evenodd" d="M3.30911 1.86732C3.30911 2.48842 2.76112 2.98541 1.88122 2.98541H1.8651C1.01791 2.98541 0.470215 2.48842 0.470215 1.86732C0.470215 1.23308 1.03459 0.75 1.89785 0.75C2.76112 0.75 3.29273 1.23308 3.30911 1.86732ZM3.14291 3.86831V10.3369H0.619434V3.86831H3.14291ZM12.2434 10.3369L12.2435 6.62802C12.2435 4.64114 10.9986 3.71642 9.33805 3.71642C7.99825 3.71642 7.3984 4.34426 7.06348 4.78471V3.86849H4.5397C4.57296 4.47547 4.5397 10.3371 4.5397 10.3371H7.06348V6.72448C7.06348 6.53116 7.07986 6.33831 7.14658 6.19989C7.32896 5.81367 7.74421 5.4138 8.44138 5.4138C9.35489 5.4138 9.72005 6.00695 9.72005 6.87621V10.3369H12.2434Z" fill="white"/>
</svg>
