<svg width="23" height="19" viewBox="0 0 23 19" fill="none" xmlns="http://www.w3.org/2000/svg">
<path d="M0.4226 9.5C0.4226 4.25329 5.40799 0 11.5578 0C17.7076 0 22.6929 4.25329 22.6929 9.5C22.6929 14.7467 17.7076 19 11.5578 19C5.40799 19 0.4226 14.7467 0.4226 9.5Z" fill="#55ACEE"/>
<path d="M11.2243 7.72167L11.2476 8.05039L10.8582 8.01014C9.44064 7.85584 8.20221 7.33257 7.15072 6.45374L6.63666 6.01769L6.50425 6.3397C6.22385 7.05752 6.403 7.81559 6.98716 8.32544C7.29871 8.60721 7.22861 8.64746 6.69118 8.47974C6.50425 8.42607 6.34069 8.38582 6.32511 8.40595C6.27059 8.45291 6.45752 9.06339 6.60551 9.3049C6.80802 9.64033 7.22082 9.96905 7.67257 10.1636L8.05423 10.3179L7.60248 10.3246C7.1663 10.3246 7.15072 10.3313 7.19746 10.4722C7.35323 10.9083 7.96855 11.3711 8.65397 11.5724L9.13687 11.7133L8.71628 11.928C8.09317 12.2366 7.36102 12.411 6.62887 12.4244C6.27838 12.4311 5.99019 12.4579 5.99019 12.4781C5.99019 12.5452 6.94043 12.9208 7.49343 13.0684C9.15245 13.5045 11.123 13.3166 12.6029 12.572C13.6544 12.042 14.7059 10.9888 15.1966 9.96905C15.4614 9.42565 15.7262 8.43278 15.7262 7.95647C15.7262 7.64788 15.7496 7.60762 16.1858 7.23865C16.4428 7.02398 16.6842 6.78917 16.731 6.72209C16.8089 6.59463 16.8011 6.59463 16.4038 6.70867C15.7418 6.90993 15.6483 6.88309 15.9755 6.58121C16.2169 6.36653 16.5051 5.97743 16.5051 5.86339C16.5051 5.84326 16.3883 5.8768 16.2559 5.93718C16.1157 6.00427 15.8041 6.1049 15.5704 6.16527L15.1498 6.27932L14.7682 6.05794C14.5579 5.93718 14.2619 5.80301 14.1061 5.76276C13.7089 5.66884 13.1014 5.68226 12.7431 5.78959C11.7695 6.09148 11.1542 6.86968 11.2243 7.72167Z" fill="white"/>
</svg>
